<?xml version="1.0" encoding="UTF-8" standalone="no"?>
<!DOCTYPE svg PUBLIC "-//W3C//DTD SVG 1.1//EN" "http://www.w3.org/Graphics/SVG/1.1/DTD/svg11.dtd">
<svg xmlns="http://www.w3.org/2000/svg" version="1.1" viewBox="0.00 0.00 1080.00 1080.00">
<g stroke-width="2.00" fill="none" stroke-linecap="butt">
<path stroke="#89683e" vector-effect="non-scaling-stroke" d="
  M 537.46 397.04
  L 535.76 394.94"
/>
<path stroke="#89683e" vector-effect="non-scaling-stroke" d="
  M 447.01 398.72
  Q 445.43 399.25 444.61 400.21"
/>
<path stroke="#89683e" vector-effect="non-scaling-stroke" d="
  M 363.31 395.58
  Q 363.24 394.44 363.81 394.44"
/>
<path stroke="#89683e" vector-effect="non-scaling-stroke" d="
  M 362.47 393.01
  L 362.10 393.22
  A 0.58 0.58 0.0 0 1 361.48 393.19
  Q 361.11 392.93 361.20 392.53"
/>
<path stroke="#89683e" vector-effect="non-scaling-stroke" d="
  M 349.29 545.77
  L 346.82 545.26"
/>
<path stroke="#89683e" vector-effect="non-scaling-stroke" d="
  M 332.29 581.95
  Q 332.09 582.81 332.31 583.50
  C 335.23 592.61 335.80 602.77 332.32 611.74
  Q 332.12 612.28 331.53 612.36
  A 0.64 0.63 -9.4 0 1 330.81 611.85
  Q 330.41 609.69 330.80 607.18"
/>
<path stroke="#89683e" vector-effect="non-scaling-stroke" d="
  M 331.07 600.23
  C 330.80 596.67 332.10 592.45 330.02 588.82"
/>
<path stroke="#89683e" vector-effect="non-scaling-stroke" d="
  M 604.29 716.49
  L 604.78 710.97"
/>
</g>
<g fill="#2e2f30">
<path d="
  M 645.94 400.08
  Q 641.01 405.40 634.33 405.62
  Q 631.66 405.71 630.77 403.47
  A 1.03 1.01 -41.6 0 1 630.83 402.61
  Q 632.27 400.02 635.24 399.83
  C 639.61 399.55 643.92 396.78 645.73 392.67
  C 646.52 390.87 647.30 388.94 648.47 387.37
  Q 652.54 381.88 659.65 379.80
  C 663.54 378.67 666.14 378.87 669.61 380.07
  Q 670.22 380.28 670.75 379.90
  C 677.62 374.81 681.63 364.49 682.25 356.26
  Q 682.43 353.89 684.81 353.88
  L 685.24 353.88
  Q 686.85 353.87 686.84 355.48
  Q 686.79 361.98 684.09 368.72
  Q 682.22 373.36 685.75 369.81
  C 693.62 361.88 700.72 353.05 707.58 344.42
  C 710.50 340.75 714.10 343.69 714.72 347.18
  C 716.73 358.41 714.57 369.23 708.32 378.72
  Q 706.39 381.65 704.51 384.36
  Q 703.39 385.96 705.30 385.54
  Q 712.45 383.94 719.91 381.25
  A 1.91 1.90 68.5 0 1 722.31 382.30
  C 722.82 383.49 722.64 384.99 721.99 386.09
  Q 719.75 389.91 716.96 393.84
  C 711.16 401.99 702.91 406.80 693.38 410.02
  C 691.16 410.77 692.14 413.47 692.00 415.23
  Q 691.86 416.94 693.55 416.65
  Q 695.98 416.24 697.16 417.57
  A 1.52 1.51 57.5 0 1 696.63 419.96
  Q 693.76 421.20 690.33 421.09
  C 685.51 420.93 686.95 416.49 686.80 413.39
  Q 686.74 412.27 685.62 412.26
  Q 684.53 412.26 683.53 412.67
  Q 682.48 413.09 682.50 414.22
  Q 682.54 417.25 682.46 420.33
  C 682.35 424.73 676.49 424.15 674.32 421.87
  C 673.02 420.51 674.02 417.96 676.04 418.59
  Q 676.51 418.74 677.00 418.87
  Q 677.85 419.11 677.84 418.23
  L 677.81 414.40
  A 0.72 0.71 87.8 0 0 677.04 413.68
  Q 673.59 413.91 670.44 413.74
  C 661.64 413.27 651.39 408.77 647.58 400.35
  A 1.00 0.99 54.2 0 0 645.94 400.08
  Z
  M 694.60 389.44
  Q 694.79 387.24 696.39 385.51
  C 705.65 375.53 711.28 365.66 710.17 351.54
  Q 710.12 350.87 709.49 350.70
  A 0.96 0.95 -64.2 0 0 708.47 351.06
  Q 698.25 364.85 685.77 375.78
  Q 680.71 380.21 675.23 383.16
  A 0.81 0.80 51.3 0 0 675.09 384.48
  Q 677.00 386.13 677.72 388.69
  A 1.17 1.16 57.2 0 1 677.49 389.78
  C 676.25 391.25 674.00 390.64 672.86 389.34
  C 670.64 386.81 667.96 384.01 664.34 384.04
  Q 655.78 384.09 650.84 392.01
  Q 648.41 395.91 651.21 399.48
  C 657.38 407.33 666.71 409.35 676.15 408.66
  C 691.51 407.52 704.97 401.76 714.21 389.59
  Q 715.26 388.21 713.57 388.63
  Q 706.46 390.41 699.52 391.32
  Q 697.05 391.65 695.15 390.51
  Q 694.53 390.15 694.60 389.44
  Z"
/>
<path d="
  M 535.76 394.94
  L 537.46 397.04
  Q 528.20 400.08 518.48 400.88
  C 516.53 401.04 512.34 404.46 510.04 405.61
  C 495.51 412.87 478.69 416.55 462.68 413.91
  Q 449.89 411.80 444.61 400.21
  Q 445.43 399.25 447.01 398.72
  C 451.41 409.74 464.69 411.99 475.27 411.10
  Q 492.14 409.66 508.75 402.37
  Q 509.50 402.04 508.77 401.65
  Q 508.27 401.39 507.70 401.39
  Q 500.72 401.43 494.93 399.67
  C 488.47 397.71 485.46 391.30 492.76 387.37
  Q 502.45 382.16 512.27 381.57
  Q 515.97 381.35 519.51 383.46
  C 524.75 386.58 523.51 392.56 520.37 396.65
  A 0.60 0.60 0.0 0 0 520.88 397.61
  Q 528.56 397.14 535.76 394.94
  Z
  M 498.10 387.93
  C 495.40 388.91 487.44 392.51 493.39 396.11
  Q 495.43 397.34 498.30 397.79
  Q 505.28 398.89 510.93 398.60
  Q 516.24 398.33 518.77 393.51
  C 520.58 390.05 519.74 386.00 515.65 384.88
  C 510.36 383.43 503.32 386.05 498.10 387.93
  Z"
/>
<path d="
  M 736.77 400.31
  L 737.01 400.52
  A 0.30 0.29 24.3 0 0 737.50 400.34
  Q 737.89 397.32 737.96 393.97
  Q 738.02 391.64 739.13 393.69
  Q 740.66 396.52 739.98 400.41
  Q 739.03 405.84 737.21 410.92
  Q 737.06 411.35 736.62 411.45
  Q 736.49 411.49 736.37 411.43
  Q 736.10 411.30 736.11 411.00
  C 736.13 407.25 734.09 404.13 733.59 400.62
  Q 732.80 395.18 735.32 389.70
  Q 736.64 386.85 736.52 389.99
  L 736.17 398.96
  Q 736.14 399.78 736.77 400.31
  Z"
/>
<path d="
  M 361.20 392.53
  Q 361.11 392.93 361.48 393.19
  A 0.58 0.58 0.0 0 0 362.10 393.22
  L 362.47 393.01
  Q 361.87 394.05 363.81 394.44
  Q 363.24 394.44 363.31 395.58
  Q 360.63 394.47 359.61 395.85
  Q 352.37 405.66 344.45 412.91
  C 341.54 415.57 337.36 417.91 333.15 417.40
  Q 328.98 416.90 327.21 413.65
  C 324.59 408.84 328.27 402.82 332.23 399.72
  Q 340.01 393.63 348.91 393.31
  Q 353.36 393.15 358.75 393.36
  Q 360.33 393.42 361.20 392.53
  Z
  M 340.75 397.06
  C 335.01 399.29 325.78 405.76 328.66 412.47
  Q 329.73 414.96 332.93 415.34
  C 337.71 415.92 341.77 413.18 345.04 409.98
  Q 351.59 403.58 357.26 396.45
  A 0.70 0.69 21.5 0 0 356.77 395.33
  Q 347.25 394.54 340.75 397.06
  Z"
/>
<ellipse cx="0.00" cy="0.00" transform="translate(653.71,396.30) rotate(76.3)" rx="1.61" ry="1.14"/>
<path d="
  M 742.40 604.55
  Q 742.52 604.83 742.64 605.11
  C 743.24 606.44 742.20 607.62 740.83 607.50
  A 0.87 0.86 8.2 0 1 740.06 606.48
  L 740.44 604.52
  Q 740.53 604.05 740.10 603.85
  C 736.03 601.93 731.37 596.81 731.74 591.75
  Q 732.37 583.11 732.62 575.50
  C 733.76 541.77 733.43 510.96 732.54 478.75
  Q 731.96 457.32 729.94 430.41
  C 729.72 427.50 729.12 424.69 728.56 421.85
  A 2.61 2.60 -23.5 0 1 729.60 419.22
  Q 730.90 418.30 732.73 418.13
  Q 737.27 417.72 741.84 417.17
  A 2.15 2.15 0.0 0 1 744.16 418.70
  Q 744.74 420.67 744.85 422.73
  C 747.81 479.42 750.25 534.18 750.26 589.99
  Q 750.26 599.18 742.71 603.65
  Q 742.17 603.97 742.40 604.55
  Z
  M 740.17 424.06
  L 739.78 422.09
  A 0.21 0.21 0.0 0 0 739.54 421.93
  L 733.64 423.10
  A 1.46 1.19 -11.2 0 0 732.44 424.55
  L 732.45 424.59
  A 1.46 1.19 -11.2 0 0 734.11 425.47
  L 740.01 424.30
  A 0.21 0.21 0.0 0 0 740.17 424.06
  Z
  M 742.02 558.50
  C 743.36 558.42 744.48 559.43 745.75 559.80
  A 0.44 0.44 0.0 0 0 746.31 559.35
  C 745.80 547.75 745.69 535.90 745.28 524.26
  Q 743.52 474.33 741.47 439.24
  Q 741.14 433.54 740.62 427.50
  Q 740.47 425.85 739.32 427.04
  C 738.11 428.30 736.29 428.25 734.70 428.48
  Q 733.89 428.60 733.97 429.41
  C 738.00 472.51 738.05 515.51 737.16 558.97
  A 0.93 0.92 71.0 0 0 738.67 559.71
  Q 739.97 558.63 742.02 558.50
  Z
  M 745.88 579.63
  Q 745.14 577.78 742.62 578.11
  A 0.74 0.74 0.0 0 0 741.97 578.86
  Q 741.99 579.72 742.79 579.89
  Q 744.60 580.26 746.30 579.88
  Q 746.67 579.79 746.30 579.89
  Q 746.15 579.93 746.03 579.83
  Q 745.93 579.75 745.88 579.63
  Z
  M 739.9292 578.8064
  A 1.62 1.06 -17.0 0 0 738.0701 578.2663
  A 1.62 1.06 -17.0 0 0 736.8308 579.7536
  A 1.62 1.06 -17.0 0 0 738.6899 580.2937
  A 1.62 1.06 -17.0 0 0 739.9292 578.8064
  Z
  M 745.5244 584.7030
  A 1.59 0.98 4.8 0 0 744.0220 583.5934
  A 1.59 0.98 4.8 0 0 742.3556 584.4370
  A 1.59 0.98 4.8 0 0 743.8580 585.5466
  A 1.59 0.98 4.8 0 0 745.5244 584.7030
  Z
  M 740.0753 584.4980
  A 1.59 0.84 -4.4 0 0 738.4256 583.7825
  A 1.59 0.84 -4.4 0 0 736.9047 584.7420
  A 1.59 0.84 -4.4 0 0 738.5544 585.4575
  A 1.59 0.84 -4.4 0 0 740.0753 584.4980
  Z"
/>
<path d="
  M 374.10 520.48
  C 375.97 520.83 377.79 520.17 379.64 520.03
  Q 392.77 519.06 405.75 519.03
  C 408.99 519.02 413.00 519.29 414.84 522.28
  Q 417.93 527.29 414.17 531.13
  C 411.08 534.29 406.80 532.33 403.03 532.49
  Q 388.43 533.12 368.75 534.97
  Q 361.52 535.66 360.62 528.50
  Q 359.33 518.33 358.95 504.80
  Q 357.89 466.55 361.74 429.73
  C 362.10 426.25 362.15 421.64 365.01 419.44
  Q 369.11 416.29 373.95 419.84
  C 377.02 422.10 376.35 426.02 375.95 429.24
  Q 375.13 435.72 374.65 443.21
  C 373.01 468.66 371.79 494.10 373.63 519.96
  Q 373.66 520.40 374.10 520.48
  Z"
/>
<path d="
  M 333.56 463.19
  Q 331.95 458.61 330.46 453.83
  Q 327.45 444.14 327.77 434.03
  C 327.95 428.59 331.94 424.19 337.53 426.01
  C 341.20 427.20 342.57 432.79 342.92 436.14
  Q 344.51 451.74 337.22 463.70
  A 1.44 1.41 51.6 0 0 337.09 464.91
  C 339.55 471.93 341.17 483.89 332.75 487.71
  C 325.74 490.89 317.37 486.03 321.12 477.80
  C 323.46 472.64 328.98 468.26 333.20 464.56
  A 1.27 1.26 60.0 0 0 333.56 463.19
  Z
  M 336.71 460.32
  C 340.31 452.39 342.73 439.54 339.31 430.94
  C 337.82 427.19 333.00 426.78 331.07 430.33
  Q 329.59 433.06 329.79 436.53
  Q 330.38 446.91 335.02 460.24
  Q 335.76 462.39 336.71 460.32
  Z
  M 327.40 486.10
  C 338.11 487.08 337.17 473.87 335.33 467.48
  A 0.49 0.49 0.0 0 0 334.56 467.23
  Q 328.27 472.14 324.38 477.17
  C 321.62 480.74 322.23 485.62 327.40 486.10
  Z"
/>
<path d="
  M 493.81 467.19
  C 486.21 483.27 484.95 504.12 493.31 520.07
  C 498.51 529.98 508.25 534.42 518.96 529.98
  C 526.40 526.90 531.17 521.53 535.44 514.79
  Q 536.75 512.72 539.48 512.54
  Q 546.05 512.09 547.32 518.32
  Q 547.68 520.05 545.86 523.46
  C 538.13 537.92 522.41 547.72 505.75 545.06
  C 486.73 542.02 476.75 524.68 474.14 506.85
  Q 470.78 483.99 479.40 464.21
  C 484.89 451.61 493.71 440.99 506.76 436.94
  Q 513.81 434.75 520.70 436.05
  C 533.91 438.54 541.41 450.06 544.80 462.76
  C 547.78 473.98 532.61 477.15 531.16 466.23
  Q 530.19 459.00 524.15 452.97
  C 518.78 447.62 510.07 449.19 504.50 453.49
  Q 497.86 458.61 493.81 467.19
  Z"
/>
<path d="
  M 409.27 443.36
  C 409.65 440.90 411.00 438.17 413.63 437.53
  Q 418.86 436.26 421.76 439.71
  C 424.04 442.44 422.71 446.11 422.32 449.15
  Q 419.28 472.69 425.79 494.58
  C 426.91 498.34 432.30 512.94 437.31 512.41
  C 444.09 511.69 447.61 488.99 448.33 483.51
  Q 450.81 464.58 450.88 443.51
  C 450.90 439.14 455.33 437.11 459.20 437.84
  C 463.32 438.63 464.67 441.55 464.59 445.40
  C 464.26 461.70 463.72 478.84 460.82 494.57
  C 458.55 506.87 452.39 528.06 435.87 526.41
  C 418.94 524.73 411.07 498.30 409.04 484.65
  Q 405.98 464.16 409.27 443.36
  Z"
/>
<path d="
  M 656.82 472.17
  C 656.44 479.95 661.81 483.70 668.85 483.44
  Q 675.66 483.18 683.12 482.84
  C 701.07 482.00 723.56 491.08 721.42 513.00
  C 720.50 522.44 714.95 531.28 707.22 536.52
  Q 694.83 544.91 679.34 542.36
  C 668.09 540.51 658.44 530.95 655.12 520.75
  C 653.29 515.12 657.90 510.77 663.50 511.25
  C 667.11 511.56 668.34 515.38 669.13 518.26
  Q 669.99 521.35 672.32 523.46
  Q 682.09 532.33 693.94 527.73
  C 700.25 525.28 706.48 519.99 707.44 513.12
  Q 708.33 506.70 704.10 502.67
  C 694.07 493.14 677.05 498.41 665.51 497.49
  C 651.22 496.35 641.89 484.72 643.33 470.64
  Q 644.70 457.16 654.98 447.65
  Q 667.02 436.52 683.34 438.07
  Q 703.91 440.03 713.88 458.65
  Q 717.77 465.91 710.85 470.23
  C 708.67 471.58 705.57 471.06 703.63 469.46
  C 701.14 467.40 701.34 463.73 699.27 461.20
  C 692.48 452.91 681.75 449.19 671.68 453.20
  C 663.54 456.45 657.25 463.50 656.82 472.17
  Z"
/>
<path d="
  M 576.99 509.84
  Q 575.28 519.87 573.85 530.45
  C 572.80 538.20 559.25 536.52 560.32 527.40
  C 563.04 504.19 568.10 481.63 577.54 459.81
  C 580.53 452.91 584.97 443.79 591.77 440.36
  C 599.34 436.54 605.88 441.26 609.94 447.55
  Q 616.75 458.08 621.16 471.68
  Q 630.06 499.14 632.38 530.12
  C 632.94 537.45 619.84 539.12 618.86 530.81
  Q 617.50 519.34 615.80 507.49
  A 1.33 1.33 0.0 0 0 614.60 506.35
  C 602.07 505.24 589.50 505.29 577.87 508.84
  Q 577.13 509.07 576.99 509.84
  Z
  M 593.65 458.30
  C 588.28 469.71 584.61 480.85 580.73 493.73
  Q 580.66 493.98 580.75 494.23
  A 0.62 0.61 -16.8 0 0 581.45 494.60
  Q 595.90 491.31 611.27 492.65
  A 0.94 0.94 0.0 0 0 612.26 491.47
  Q 609.15 479.65 604.66 467.63
  Q 601.61 459.46 597.78 453.56
  A 0.63 0.63 0.0 0 0 596.78 453.48
  Q 594.94 455.56 593.65 458.30
  Z"
/>
<path d="
  M 349.29 545.77
  L 346.82 545.26
  C 348.01 533.90 341.62 525.78 332.11 521.12
  A 1.08 1.08 0.0 0 0 330.69 521.57
  Q 326.34 529.53 323.54 537.72
  Q 318.72 551.84 324.93 565.88
  Q 328.49 573.92 332.29 581.95
  Q 332.09 582.81 332.31 583.50
  C 335.23 592.61 335.80 602.77 332.32 611.74
  Q 332.12 612.28 331.53 612.36
  A 0.64 0.63 -9.4 0 1 330.81 611.85
  Q 330.41 609.69 330.80 607.18
  L 331.37 610.47
  Q 331.50 611.19 332.02 610.69
  Q 332.56 610.17 332.62 609.42
  Q 333.12 602.83 332.63 595.80
  A 0.63 0.61 88.9 0 0 332.04 595.22
  L 331.74 595.20
  A 0.31 0.31 0.0 0 0 331.42 595.49
  L 331.07 600.23
  C 330.80 596.67 332.10 592.45 330.02 588.82
  C 328.13 581.88 324.58 575.27 321.51 568.78
  Q 315.24 555.53 318.33 541.77
  Q 320.83 530.63 327.38 520.05
  A 1.04 1.04 0.0 0 0 326.87 518.53
  C 322.57 516.89 318.96 513.17 319.99 508.45
  Q 320.90 504.28 325.21 503.59
  C 332.82 502.36 334.29 511.18 332.64 516.66
  Q 332.41 517.42 333.13 517.76
  C 344.44 523.18 350.28 533.16 349.29 545.77
  Z
  M 328.6702 515.2350
  A 4.83 3.46 63.3 0 0 329.5911 509.3654
  A 4.83 3.46 63.3 0 0 324.3298 506.6050
  A 4.83 3.46 63.3 0 0 323.4089 512.4746
  A 4.83 3.46 63.3 0 0 328.6702 515.2350
  Z"
/>
<path d="
  M 417.78 607.79
  A 0.65 0.64 42.7 0 0 417.83 608.97
  C 432.21 614.51 441.82 628.06 440.51 643.88
  C 439.18 660.03 426.55 672.86 411.59 677.83
  Q 402.94 680.71 394.50 682.00
  C 385.77 683.34 377.26 684.32 368.98 684.60
  C 364.03 684.77 360.71 681.78 360.20 676.68
  C 356.54 639.99 357.78 602.99 362.98 565.72
  C 363.60 561.31 367.42 559.93 371.45 559.56
  C 382.74 558.53 393.70 557.00 404.76 558.21
  C 420.66 559.97 435.44 569.52 433.69 587.36
  C 432.75 596.83 425.96 603.92 417.78 607.79
  Z
  M 406.43 594.34
  Q 410.89 592.70 414.43 590.19
  Q 418.54 587.28 417.23 582.91
  C 413.60 570.79 388.11 573.84 379.05 575.42
  A 1.78 1.77 87.5 0 0 377.58 577.03
  L 375.36 604.09
  A 0.83 0.83 0.0 0 0 376.45 604.94
  Q 391.56 599.80 406.43 594.34
  Z
  M 374.82 624.18
  C 374.40 638.59 374.55 653.10 375.57 667.49
  A 0.78 0.78 0.0 0 0 376.38 668.21
  Q 388.05 667.65 399.75 664.94
  C 404.67 663.80 409.48 661.56 413.72 658.86
  C 424.96 651.72 429.50 637.04 417.27 627.81
  C 405.20 618.71 389.73 618.39 375.65 623.06
  Q 374.85 623.33 374.82 624.18
  Z"
/>
<path d="
  M 513.99 601.52
  C 520.59 582.75 535.97 565.77 555.72 560.34
  Q 574.94 555.05 591.61 561.80
  C 606.78 567.94 615.22 582.81 617.86 599.01
  Q 619.33 608.05 618.93 615.68
  C 616.93 653.77 588.34 693.58 545.50 677.95
  C 528.45 671.74 515.65 658.23 511.73 640.43
  Q 507.34 620.42 513.99 601.52
  Z
  M 552.40 578.94
  C 531.95 589.27 523.30 615.81 527.98 636.80
  C 531.55 652.82 544.33 662.59 560.14 665.06
  C 576.93 667.68 591.28 653.78 597.11 638.99
  C 603.56 622.64 605.59 600.88 595.73 586.06
  C 586.06 571.52 566.58 571.77 552.40 578.94
  Z"
/>
<path d="
  M 666.81 619.73
  Q 660.57 626.41 651.97 627.28
  Q 643.18 628.17 636.93 623.61
  Q 628.54 617.48 627.60 607.11
  Q 626.91 599.56 628.46 593.01
  C 632.56 575.72 646.33 559.68 664.96 558.05
  C 673.25 557.32 680.83 560.76 684.18 568.67
  Q 685.71 572.30 685.71 579.73
  Q 685.71 606.30 683.98 631.57
  A 1.24 1.24 0.0 0 0 685.15 632.89
  C 691.65 633.27 705.12 633.87 707.02 642.25
  C 708.04 646.74 704.74 650.88 700.34 651.72
  Q 698.35 652.09 694.31 651.19
  Q 689.22 650.05 682.77 649.24
  A 0.98 0.98 0.0 0 0 681.69 650.06
  C 679.08 666.50 675.69 682.59 669.20 697.79
  C 665.44 706.63 659.42 716.01 650.62 719.88
  C 641.03 724.09 630.61 720.92 623.98 713.19
  C 609.07 695.82 623.26 669.92 635.77 655.33
  Q 648.35 640.65 665.30 634.15
  A 1.71 1.69 -7.2 0 0 666.39 632.76
  L 667.89 620.23
  Q 668.12 618.33 666.81 619.73
  Z
  M 652.50 609.93
  C 660.23 605.70 664.96 595.05 666.65 586.64
  Q 667.84 580.74 668.54 575.33
  A 1.04 1.04 0.0 0 0 667.39 574.16
  C 652.57 576.00 644.58 589.70 643.02 603.32
  C 642.36 609.05 647.11 612.88 652.50 609.93
  Z
  M 663.46 656.39
  Q 663.68 655.14 663.96 653.93
  A 0.80 0.80 0.0 0 0 662.75 653.08
  C 650.24 661.01 640.63 674.03 635.98 687.62
  C 633.93 693.58 632.57 702.89 640.16 705.45
  C 649.32 708.54 656.79 684.27 658.30 678.70
  C 660.22 671.62 662.12 663.86 663.46 656.39
  Z"
/>
<path d="
  M 466.67 666.16
  Q 466.99 666.65 467.57 666.63
  Q 486.90 665.89 509.48 665.46
  C 514.03 665.37 517.71 667.71 518.61 672.29
  C 519.85 678.65 514.52 681.19 509.15 681.30
  Q 485.46 681.75 461.92 683.01
  C 452.56 683.51 451.52 679.61 450.85 671.51
  C 448.17 639.13 449.63 606.25 452.23 571.26
  Q 452.69 565.11 454.04 562.90
  C 456.88 558.23 465.10 557.54 468.14 562.78
  C 469.77 565.59 468.80 569.13 468.58 572.20
  Q 465.94 608.21 465.86 642.19
  Q 465.83 654.51 466.57 665.84
  Q 466.58 666.02 466.67 666.16
  Z"
/>
<path d="
  M 604.78 710.97
  L 604.29 716.49
  Q 592.13 712.93 579.99 710.14
  Q 557.77 705.02 536.18 706.70
  C 520.97 707.87 500.58 714.12 492.03 727.61
  Q 490.61 729.84 488.94 732.24
  Q 488.75 732.52 488.42 732.59
  A 0.68 0.68 0.0 0 1 487.58 731.92
  Q 487.63 729.46 488.81 727.33
  C 498.08 710.56 520.58 703.09 538.82 701.47
  Q 573.07 698.41 604.78 710.97
  Z"
/>
</g>
<g fill="#e4a04b">
<path d="
  M 537.46 397.04
  L 535.76 394.94
  L 550.64 389.49
  A 0.68 0.68 0.0 0 0 550.71 388.25
  C 531.80 378.71 510.40 373.13 489.47 372.02
  C 472.10 371.09 448.17 377.38 447.01 398.72
  Q 445.43 399.25 444.61 400.21
  L 443.32 398.98
  Q 442.90 398.58 442.91 398.01
  Q 442.95 387.89 449.31 380.64
  Q 456.11 372.88 465.06 369.60
  Q 477.50 365.04 490.49 365.89
  Q 526.91 368.26 559.55 385.31
  Q 560.90 386.01 562.37 385.59
  Q 578.33 381.02 590.64 379.63
  Q 596.75 378.94 603.06 380.78
  Q 613.59 383.85 616.05 393.78
  C 617.46 399.45 615.78 405.63 610.55 408.95
  C 601.60 414.62 590.91 410.40 582.14 405.84
  Q 570.59 399.85 559.16 392.32
  A 2.68 2.66 -35.6 0 0 557.02 391.97
  L 537.46 397.04
  Z
  M 567.86 389.95
  Q 580.62 398.64 593.13 404.31
  C 599.02 406.97 607.18 407.13 610.35 400.43
  Q 612.29 396.32 609.71 391.89
  C 604.99 383.80 593.13 383.71 585.21 385.17
  Q 576.31 386.82 568.37 388.83
  Q 567.88 388.95 567.70 389.43
  A 0.45 0.43 -63.2 0 0 567.86 389.95
  Z"
/>
<path d="
  M 363.31 395.58
  Q 363.24 394.44 363.81 394.44
  Q 366.64 395.14 369.42 394.91
  A 0.83 0.83 0.0 0 0 370.13 393.78
  Q 369.15 391.35 367.41 389.36
  A 0.69 0.68 -41.8 0 0 366.43 389.31
  L 362.47 393.01
  L 362.10 393.22
  A 0.58 0.58 0.0 0 1 361.48 393.19
  Q 361.11 392.93 361.20 392.53
  L 366.34 385.77
  A 1.80 1.80 0.0 0 0 366.39 383.67
  Q 365.59 382.51 365.29 381.13
  Q 365.13 380.38 365.73 380.85
  Q 366.49 381.43 366.82 382.36
  A 1.63 1.63 0.0 0 0 369.45 383.03
  Q 386.87 367.37 409.09 374.07
  C 418.67 376.95 428.71 382.79 432.54 391.86
  C 435.01 397.71 434.95 407.34 429.48 411.86
  Q 423.91 416.45 416.93 417.22
  C 411.72 417.80 405.74 417.72 400.57 416.30
  Q 384.30 411.85 372.42 397.75
  Q 371.30 396.42 369.50 396.27
  Q 366.34 396.02 363.31 395.58
  Z
  M 388.35 377.45
  C 393.29 376.59 399.03 376.99 401.44 381.98
  Q 403.31 385.85 401.15 389.61
  C 397.69 395.63 390.98 398.16 384.35 398.06
  Q 381.00 398.00 377.68 397.92
  Q 375.89 397.87 377.22 399.07
  C 384.46 405.57 392.51 411.11 401.66 413.52
  C 406.83 414.89 413.20 415.19 418.24 414.30
  Q 422.57 413.52 426.98 410.21
  C 429.24 408.51 430.35 406.32 430.90 403.60
  Q 433.23 392.02 423.15 384.15
  Q 413.39 376.52 400.65 375.05
  C 388.83 373.69 378.13 378.69 369.70 386.50
  A 0.78 0.78 0.0 0 0 369.49 387.32
  C 370.25 389.63 372.91 395.37 375.80 395.66
  C 383.20 396.41 393.30 396.96 398.28 390.75
  C 402.09 386.00 401.36 379.59 394.54 378.22
  Q 391.57 377.63 388.51 378.45
  Q 388.23 378.53 388.15 378.24
  L 388.06 377.91
  Q 387.96 377.52 388.35 377.45
  Z"
/>
<path d="
  M 346.82 545.26
  L 349.29 545.77
  Q 349.14 550.64 348.03 555.51
  Q 344.47 571.18 335.82 584.81
  Q 334.71 586.57 335.11 588.48
  Q 337.50 599.63 336.10 610.32
  C 335.81 612.59 334.60 614.46 333.81 616.57
  A 1.63 1.62 33.3 0 0 334.17 618.27
  Q 339.18 623.41 341.85 629.45
  Q 345.81 638.41 338.88 645.41
  Q 333.46 650.88 325.29 648.61
  C 317.75 646.51 318.92 638.43 321.34 633.06
  Q 324.92 625.12 328.93 617.88
  A 2.69 2.68 49.5 0 0 329.10 615.66
  Q 327.47 611.25 327.27 606.75
  Q 326.86 597.39 330.02 588.82
  C 332.10 592.45 330.80 596.67 331.07 600.23
  L 330.80 607.18
  Q 330.41 609.69 330.81 611.85
  A 0.64 0.63 -9.4 0 0 331.53 612.36
  Q 332.12 612.28 332.32 611.74
  C 335.80 602.77 335.23 592.61 332.31 583.50
  Q 332.09 582.81 332.29 581.95
  Q 332.91 581.52 333.06 581.29
  Q 342.38 566.48 345.44 550.24
  Q 346.08 546.87 346.82 545.26
  Z
  M 327.52 628.08
  C 325.89 631.55 324.03 634.72 322.72 638.41
  C 321.64 641.45 322.73 644.33 325.61 645.72
  Q 333.18 649.36 338.34 643.04
  C 344.76 635.18 337.67 626.77 332.29 621.19
  A 0.93 0.93 0.0 0 0 330.80 621.41
  Q 329.14 624.65 327.52 628.08
  Z"
/>
<path d="
  M 604.29 716.49
  L 604.78 710.97
  Q 609.20 713.94 614.85 718.91
  Q 623.16 726.21 631.15 730.49
  Q 642.32 736.47 646.54 737.95
  C 663.22 743.82 679.75 743.32 694.87 733.40
  C 709.24 723.97 717.46 709.72 725.10 694.24
  Q 730.19 683.92 737.93 676.89
  Q 738.27 676.59 737.99 676.23
  Q 728.89 664.58 721.96 651.50
  C 715.07 638.48 720.56 625.36 733.30 619.11
  C 738.62 616.50 746.74 615.56 751.86 619.21
  C 756.82 622.73 758.63 628.48 758.49 634.48
  Q 758.31 642.15 756.30 649.40
  Q 752.45 663.31 745.76 675.84
  A 2.32 2.30 -46.2 0 0 745.80 678.11
  Q 750.89 686.81 753.92 695.08
  C 757.72 705.45 759.05 722.06 747.81 728.41
  Q 742.60 731.36 737.08 727.67
  C 731.43 723.89 733.41 711.59 734.75 706.03
  Q 737.63 694.09 741.10 682.64
  A 0.33 0.33 0.0 0 0 740.66 682.24
  C 736.75 683.79 732.65 690.33 731.11 693.67
  C 724.90 707.22 718.21 721.56 707.24 731.82
  C 693.28 744.88 674.40 750.98 655.47 746.92
  C 635.58 742.66 617.79 731.60 604.29 716.49
  Z
  M 740.31 622.68
  Q 731.66 624.07 726.43 632.35
  C 722.21 639.01 725.29 647.24 729.16 653.14
  Q 735.32 662.54 740.97 670.45
  A 0.72 0.71 -51.3 0 0 742.21 670.31
  Q 746.10 661.29 749.33 652.23
  Q 752.51 643.32 752.86 635.00
  Q 753.12 628.91 751.11 626.09
  Q 747.82 621.48 740.31 622.68
  Z
  M 738.20 712.55
  Q 737.62 716.70 738.37 720.71
  C 738.82 723.11 741.86 726.39 744.60 724.76
  C 751.95 720.37 752.43 709.84 750.51 702.45
  Q 748.58 695.01 744.96 688.38
  A 0.51 0.51 0.0 0 0 744.03 688.46
  Q 739.74 701.49 738.20 712.55
  Z"
/>
</g>
</svg>
